<svg xmlns="http://www.w3.org/2000/svg" width="20" height="20" viewBox="0 0 20 20" fill="none">
                        <path fill-rule="evenodd" clip-rule="evenodd" d="M9.46288 15.3291C10.2409 17.9917 12.5993 18.0852 13.3447 15.3452C13.1413 15.0087 12.9915 14.6455 12.8418 14.2876C12.8174 14.2289 12.793 14.1701 12.7669 14.1114C12.4072 14.5787 11.971 14.8778 11.4014 14.8751C10.7878 14.8725 10.3255 14.4879 9.94791 13.9191C9.92512 13.8844 9.90233 13.8496 9.88118 13.8149C9.82747 14.0633 9.75748 14.357 9.68424 14.6348C9.61262 14.8992 9.53612 15.1502 9.46288 15.3291ZM19.943 12.4636C19.9805 12.5651 20 12.6746 20 12.7894C20 13.3903 19.4352 13.8763 18.737 13.8763C18.0404 13.8763 17.474 13.3903 17.474 12.7894C17.474 12.6773 17.4935 12.5678 17.5309 12.4636C17.6921 12.9043 18.1706 13.2247 18.7354 13.2247C19.3034 13.2247 19.7819 12.9043 19.943 12.4636ZM17.0801 14.0793C17.1175 14.1808 17.137 14.2903 17.137 14.4051C17.137 15.006 16.5723 15.492 15.874 15.492C15.1774 15.492 14.611 15.006 14.611 14.4051C14.611 14.293 14.6305 14.1835 14.668 14.0793C14.8291 14.52 15.3076 14.8404 15.8724 14.8404C16.4421 14.8404 16.9206 14.52 17.0801 14.0793ZM16.0596 12.493L16.0563 12.2233C16.0938 12.2206 16.123 12.2019 16.1475 12.1672C16.1719 12.1325 16.1833 12.0924 16.1865 12.0417C16.1898 11.9856 16.1784 11.9375 16.1523 11.8948C16.1263 11.852 16.0856 11.828 16.0303 11.82C15.9782 11.812 15.9375 11.8253 15.9098 11.8601C15.8822 11.8948 15.8659 11.9428 15.8626 12.0043C15.8594 12.0817 15.8757 12.1538 15.9147 12.2206L15.8838 12.4342L15.4476 12.2339L15.485 11.5262L15.638 11.5476L15.612 12.0523L15.7536 12.1138C15.7389 12.0523 15.7324 11.9882 15.7357 11.9268C15.7422 11.8093 15.7731 11.7105 15.8301 11.6357C15.887 11.5609 15.957 11.5289 16.0417 11.5423C16.1117 11.5529 16.1719 11.5957 16.224 11.6678C16.2939 11.7693 16.3249 11.9001 16.3167 12.063C16.3102 12.1912 16.2826 12.2954 16.237 12.3701C16.1898 12.4449 16.1312 12.4876 16.0596 12.493ZM15.8757 11.4141C16.4486 11.4141 16.9141 11.7132 16.9141 12.0817C16.9141 12.4503 16.4486 12.7494 15.8757 12.7494C15.3027 12.7494 14.8372 12.4503 14.8372 12.0817C14.8372 11.7132 15.3027 11.4141 15.8757 11.4141ZM15.8757 11.1924C16.5723 11.1924 17.1387 11.6785 17.1387 12.2793C17.1387 12.8802 16.5739 13.3663 15.8757 13.3663C15.179 13.3663 14.6126 12.8802 14.6126 12.2793C14.6126 11.6785 15.179 11.1924 15.8757 11.1924ZM17.085 13.0031C17.1191 13.1019 17.1387 13.206 17.1387 13.3155C17.1387 13.9164 16.5739 14.4025 15.8757 14.4025C15.179 14.4025 14.6126 13.9164 14.6126 13.3155C14.6126 13.206 14.6305 13.1019 14.6647 13.0031C14.821 13.4517 15.3027 13.7775 15.874 13.7775C16.4469 13.7749 16.9303 13.4491 17.085 13.0031ZM19.1943 10.2176L19.1797 10.4874L18.5596 10.3992C18.61 10.5061 18.6458 10.6289 18.6654 10.7651L18.5156 10.7438C18.5059 10.6716 18.4831 10.5915 18.4489 10.5034C18.4131 10.4153 18.3708 10.3512 18.3203 10.3138L18.3317 10.0948L19.1943 10.2176ZM18.737 9.79569C19.3099 9.79569 19.7754 10.0948 19.7754 10.4633C19.7754 10.8319 19.3115 11.131 18.737 11.131C18.1641 11.131 17.6986 10.8319 17.6986 10.4633C17.7002 10.0948 18.1641 9.79569 18.737 9.79569ZM18.737 9.57403C19.4336 9.57403 20 10.0601 20 10.661C20 11.2618 19.4352 11.7479 18.737 11.7479C18.0404 11.7479 17.474 11.2618 17.474 10.661C17.474 10.0601 18.0404 9.57403 18.737 9.57403ZM19.9479 11.3847C19.9821 11.4835 20 11.5877 20 11.6971C20 12.298 19.4352 12.7841 18.737 12.7841C18.0404 12.7841 17.474 12.298 17.474 11.6971C17.474 11.5877 17.4919 11.4835 17.5277 11.3847C17.6839 11.8333 18.1657 12.1592 18.737 12.1592C19.3083 12.1592 19.7917 11.8307 19.9479 11.3847ZM19.9349 14.6748C19.9772 14.7843 20 14.8992 20 15.0194C20 15.6202 19.4352 16.1063 18.737 16.1063C18.0404 16.1063 17.474 15.6202 17.474 15.0194C17.474 14.8992 17.4967 14.7817 17.5391 14.6748C17.7067 15.1048 18.1803 15.4146 18.737 15.4146C19.2936 15.4173 19.7673 15.1048 19.9349 14.6748ZM19.9398 13.5585C19.9788 13.6627 20 13.7722 20 13.887C20 14.4879 19.4352 14.974 18.737 14.974C18.0404 14.974 17.474 14.4879 17.474 13.887C17.474 13.7722 17.4951 13.6627 17.5326 13.5585C17.6953 13.9965 18.1722 14.3143 18.7354 14.3143C19.3018 14.3143 19.7786 13.9965 19.9398 13.5585ZM6.86685 15.9728C6.9873 16.0502 7.10774 16.1276 7.22655 16.2051C7.96549 15.9087 8.75813 15.5989 9.23176 15.0567C9.29361 14.9045 9.35872 14.6855 9.42219 14.4478C9.51822 14.09 9.60611 13.6974 9.66145 13.4304C9.42707 12.979 9.22851 12.4689 9.03645 11.9695L8.40331 10.3191C8.17219 9.75296 8.05175 9.23487 8.04524 8.81025C8.04198 8.60995 8.06314 8.42835 8.10709 8.27079C8.15429 8.10254 8.2259 7.96367 8.32519 7.85685C8.37076 7.80611 8.42122 7.76338 8.47818 7.72866C8.43749 6.83402 8.42122 5.70436 8.44888 4.76164C8.46191 4.53731 8.48795 4.31299 8.52701 4.08866C8.68814 3.1406 9.09342 2.37681 9.59635 1.85338C9.87304 1.56495 10.1758 1.34597 10.4932 1.19908C10.6934 1.10561 10.3223 0.0507335 10.529 0.0160159C11.5332 -0.152231 13.1592 1.35131 13.8607 2.5958C14.2122 3.22072 14.432 4.04593 14.4808 5.14087L14.4417 7.83549C14.6175 7.92361 14.7298 8.10521 14.7754 8.40165C14.8258 8.73013 14.7705 9.18947 14.6012 9.81973C14.598 9.83041 14.5947 9.84376 14.5898 9.85445L13.8688 11.804C13.6035 12.5197 13.335 13.2381 12.985 13.8042C13.016 13.879 13.0485 13.9538 13.0794 14.0312C13.2227 14.3731 13.3659 14.7176 13.5514 15.0247C13.5579 15.0354 13.5628 15.0461 13.5677 15.0567C14.3978 16.0182 16.2337 16.2505 17.0101 16.9609C17.2673 17.1959 17.5 17.4977 17.6872 17.9009C17.8564 18.2695 18.1038 19.2202 18.221 20.0053C12.1549 20.0053 6.09049 20.0053 0.0260348 20.0053C-0.237637 17.5965 1.98892 16.4615 2.67252 15.5134C2.97688 15.0888 3.32519 14.6081 3.36425 14.4585C3.26659 14.2983 3.17707 14.1274 3.08918 13.9591L2.70832 13.2354L2.42512 13.2488L1.88638 13.2728C1.42414 12.3995 1.45344 10.5274 1.49739 9.44318C1.71223 7.26932 2.22493 5.70436 3.05989 4.79903C3.62467 4.1848 3.96321 4.15275 4.62239 4.15008C5.19856 4.15008 5.55175 4.12872 6.04329 4.66016C7.64648 6.3907 8.14289 10.4767 7.35839 13.2301H6.79849L6.76269 13.2995L6.71223 13.3956L6.46972 13.8763C6.32812 14.1568 6.18489 14.4345 6.01562 14.6802C6.11653 14.8992 6.39973 15.3051 6.65038 15.6656C6.72688 15.7698 6.80012 15.8739 6.86685 15.9728ZM5.09927 17.9383C5.10579 17.9223 5.1123 17.9063 5.12043 17.8929C5.30761 17.487 5.54036 17.1879 5.79752 16.9529C5.92121 16.8407 6.07258 16.7392 6.24185 16.6457C6.32323 16.4161 6.38508 16.157 6.42414 15.8659C6.18651 15.5241 5.93586 15.1582 5.82519 14.9232L5.81379 14.9366C5.54036 15.2437 5.20344 15.4466 4.74446 15.444C4.31477 15.4413 3.99088 15.2464 3.72558 14.9553C3.66047 14.8832 3.59862 14.8057 3.54003 14.7256C3.41308 15.0007 3.10383 15.4306 2.82714 15.8125L2.76692 15.8926C2.74088 17.4549 4.03319 18.3282 5.09927 17.9383ZM8.84276 8.20403C8.70279 8.21204 8.597 8.26011 8.52375 8.34023C8.48306 8.38563 8.45214 8.44438 8.43261 8.51381C8.41145 8.59126 8.40006 8.68473 8.40331 8.79155C8.40819 9.10668 8.50911 9.52062 8.70442 9.99599L8.70767 10.004L9.34081 11.6544C9.59472 12.3167 9.86002 12.9897 10.1904 13.4864C10.5078 13.9645 10.8936 14.2849 11.403 14.2876C11.9548 14.2903 12.3584 13.9538 12.6872 13.4517C13.029 12.9283 13.2975 12.2099 13.5628 11.4942L14.2757 9.56869C14.4092 9.07197 14.4564 8.73814 14.4271 8.54319C14.4092 8.42835 14.3311 8.3696 14.1976 8.35892C14.1699 8.35625 14.1406 8.35625 14.1113 8.35625C14.0788 8.35892 14.0462 8.36159 14.012 8.36693C13.9925 8.3696 13.9746 8.36693 13.9567 8.36159C13.8932 8.36693 13.8281 8.35892 13.7614 8.3429L14.0055 6.56963C12.194 7.03698 10.8398 4.83108 8.92577 6.12898L9.06412 8.21738C8.98274 8.22539 8.9095 8.22005 8.84276 8.20403ZM2.80924 12.9096C2.36164 10.3966 2.57161 8.08919 3.77603 6.11296C3.98925 7.24262 4.46614 8.17465 5.27831 8.86366C5.66731 9.33635 6.04166 9.90786 6.40624 10.5648C6.47135 10.1295 6.22558 9.60074 5.9261 9.05594C6.20279 9.28027 6.45507 9.59273 6.63573 10.1936C6.84407 10.8933 6.84081 11.4808 6.77245 12.2393C6.75129 12.4716 6.72037 12.6959 6.68131 12.9069C6.66829 12.9176 6.65852 12.9336 6.64875 12.9497C6.6162 13.0164 6.58202 13.0805 6.55273 13.1393C6.54133 13.1606 6.53157 13.182 6.50227 13.2381L6.25976 13.7188C6.07421 14.0873 5.88541 14.4532 5.64452 14.7229C5.4134 14.982 5.1302 15.1529 4.7412 15.1529C4.38313 15.1529 4.11132 14.9846 3.88671 14.7416C3.65396 14.4879 3.46679 14.1407 3.28938 13.8016L2.84504 12.955C2.8369 12.9336 2.82388 12.9203 2.80924 12.9096Z" fill="white"/>
                        </svg>
