<svg xmlns="http://www.w3.org/2000/svg" width="20" height="20" viewBox="0 0 20 20" fill="none">
<path fill-rule="evenodd" clip-rule="evenodd" d="M0.504439 10.379H3.46598C3.59964 10.3795 3.72769 10.4397 3.8222 10.5464C3.91671 10.6531 3.96999 10.7978 3.97042 10.9488V17.7861C3.96999 17.937 3.91671 18.0817 3.8222 18.1884C3.72769 18.2952 3.59964 18.3554 3.46598 18.3559H0.504439C0.370785 18.3554 0.242728 18.2952 0.148221 18.1884C0.0537129 18.0817 0.000429067 17.937 0 17.7861V10.9488C0.000429067 10.7978 0.0537129 10.6531 0.148221 10.5464C0.242728 10.4397 0.370785 10.3795 0.504439 10.379ZM4.62456 17.6868V11.0278H7.77324C8.89928 11.2557 10.0253 11.9468 11.1497 12.7463H13.213C14.1454 12.8088 14.6352 13.8785 13.7289 14.5843C13.0048 15.1835 12.0512 15.1486 11.0732 15.0511C10.3979 15.0126 10.3687 16.0363 11.0732 16.04C11.3173 16.062 11.5826 15.9977 11.8153 15.9959C13.0357 15.9959 14.0413 15.7312 14.6564 14.6431L14.9704 13.8142L18.0378 12.0957C19.5739 11.5259 20.6641 13.34 19.5332 14.6008C17.3932 16.3655 15.1039 17.8868 12.6988 19.1425C11.0065 20.306 9.31259 20.2655 7.62028 19.1425L4.62619 17.6868H4.62456ZM10.0888 1.40592C10.07 1.38853 10.0485 1.37542 10.0253 1.36732C10.0082 1.36291 9.99038 1.36291 9.97324 1.36732C9.92719 1.37255 9.88467 1.39755 9.85446 1.43717L9.44277 1.98856C9.40607 2.03842 9.35525 2.07242 9.29891 2.08481C9.24257 2.0972 9.18417 2.08723 9.1336 2.05657C9.07827 2.02348 9.01969 1.99224 8.96111 1.96467C8.90253 1.9371 8.83256 1.90769 8.77073 1.8838C8.70889 1.8599 8.64543 1.83968 8.5722 1.81579C8.49898 1.7919 8.43715 1.77352 8.37368 1.75698C8.32109 1.74189 8.27426 1.70793 8.24022 1.6602C8.20618 1.61247 8.18678 1.55356 8.18493 1.4923L8.12309 0.735053C8.12051 0.708255 8.11391 0.682149 8.10356 0.657858C8.09356 0.638044 8.08094 0.62007 8.06614 0.604556C8.05142 0.589297 8.0335 0.578541 8.01407 0.57331C7.99211 0.567642 7.96931 0.567642 7.94735 0.57331L7.0833 0.668886C7.0602 0.672396 7.03771 0.679832 7.01658 0.690942C6.99542 0.703985 6.97665 0.721449 6.96125 0.742405C6.94843 0.760534 6.93851 0.781063 6.93196 0.803059C6.92862 0.8231 6.92862 0.843671 6.93196 0.863713L6.99217 1.57869C6.99777 1.64485 6.98257 1.71112 6.94925 1.7659C6.91593 1.82067 6.86661 1.86046 6.80992 1.87828C6.75785 1.8985 6.69927 1.92239 6.63256 1.95364C6.56584 1.98489 6.50889 2.01613 6.45682 2.04738H6.44705C6.39173 2.08046 6.33315 2.11538 6.28433 2.15214H6.26806C6.21273 2.1889 6.15903 2.2275 6.10534 2.2661C6.06092 2.29927 6.00834 2.31572 5.95515 2.31308C5.90195 2.31044 5.85085 2.28884 5.80918 2.25139L5.24616 1.75881C5.22902 1.74324 5.20979 1.73083 5.18921 1.72205C5.17314 1.71801 5.15647 1.71801 5.14039 1.72205C5.11714 1.72581 5.0946 1.73389 5.07368 1.74595H5.06391C5.04882 1.75803 5.03515 1.77224 5.02323 1.78822L4.47811 2.53628C4.46169 2.55862 4.44901 2.58416 4.44069 2.61164C4.43747 2.63108 4.43747 2.65102 4.44069 2.67046V2.68332C4.44239 2.70516 4.44792 2.72641 4.45696 2.74581V2.755C4.46774 2.77309 4.48091 2.78921 4.49601 2.80279L4.98418 3.2678C5.02897 3.30913 5.05952 3.36689 5.07052 3.43102C5.08152 3.49516 5.07227 3.56162 5.04439 3.61886C5.01517 3.67862 4.98857 3.73996 4.96465 3.80266C4.93759 3.87293 4.9137 3.9447 4.89306 4.0177C4.87353 4.08571 4.85238 4.15923 4.83122 4.24194C4.81007 4.32465 4.7938 4.39633 4.77915 4.46617C4.76907 4.52642 4.74183 4.58129 4.70159 4.62243C4.66134 4.66358 4.6103 4.68874 4.55622 4.69408L3.88418 4.76392C3.86097 4.76683 3.83839 4.77429 3.81746 4.78598C3.79908 4.79743 3.78257 4.81235 3.76865 4.83009C3.75599 4.84738 3.74658 4.86739 3.74098 4.88891C3.7366 4.91316 3.7366 4.93817 3.74098 4.96243L3.8256 5.9384C3.82794 5.96525 3.83456 5.9914 3.84513 6.01559C3.85599 6.03949 3.87092 6.06073 3.88906 6.07809C3.90551 6.09189 3.92358 6.10302 3.94276 6.11117C3.96268 6.11505 3.98304 6.11505 4.00297 6.11117L4.63596 6.04317C4.69299 6.03915 4.7495 6.05742 4.79602 6.0949C4.84254 6.13239 4.87623 6.1868 4.89143 6.24902C4.90933 6.30784 4.93211 6.37584 4.95977 6.44936C4.98743 6.52288 5.01347 6.58721 5.04276 6.6497L5.05415 6.67543C5.08019 6.73241 5.10948 6.7949 5.14202 6.85923L5.25104 7.06141C5.27921 7.11159 5.29279 7.17045 5.28987 7.22978C5.28695 7.2891 5.26769 7.34591 5.23477 7.39225L4.78403 8.019C4.77217 8.03718 4.76234 8.05693 4.75474 8.07782C4.75219 8.09547 4.75219 8.11347 4.75474 8.13112C4.75686 8.15802 4.76349 8.18421 4.77427 8.20832C4.78479 8.23037 4.79918 8.24976 4.81658 8.26529C5.04113 8.47666 5.2722 8.68435 5.49513 8.89756C5.50999 8.90965 5.52647 8.91896 5.54394 8.92513C5.56434 8.92989 5.58538 8.92989 5.60578 8.92513C5.63054 8.92218 5.65472 8.91474 5.67738 8.90308H5.68551C5.70093 8.89137 5.71561 8.87847 5.72945 8.86448L6.13625 8.31308C6.17282 8.26248 6.22383 8.22784 6.28055 8.21509C6.33726 8.20235 6.39613 8.2123 6.44705 8.24324C6.50312 8.27717 6.56069 8.30784 6.61954 8.33514C6.683 8.36638 6.74646 8.39211 6.80992 8.41601C6.87338 8.4399 6.93359 8.46196 7.00844 8.48585C7.0833 8.50975 7.1435 8.52813 7.20697 8.54467C7.26059 8.55844 7.30867 8.59187 7.3437 8.63975C7.37873 8.68763 7.39874 8.74726 7.4006 8.80934L7.46244 9.5574C7.46503 9.58385 7.47222 9.60945 7.48359 9.63276C7.4926 9.65384 7.50533 9.6726 7.52102 9.6879C7.53674 9.70146 7.55434 9.71202 7.57309 9.71914C7.59513 9.72391 7.61777 9.72391 7.63981 9.71914L8.50223 9.62357C8.52652 9.6209 8.55021 9.61344 8.5722 9.60151C8.59156 9.59009 8.60915 9.57519 8.62428 9.5574C8.63895 9.53704 8.6505 9.51406 8.65845 9.48939C8.66341 9.46769 8.66341 9.44493 8.65845 9.42323L8.59987 8.70641C8.59399 8.6439 8.60682 8.58097 8.63632 8.52767C8.66581 8.47436 8.71027 8.43376 8.76259 8.41233C8.82605 8.38844 8.88951 8.36087 8.95135 8.33146H8.97087C9.02295 8.30573 9.07502 8.27632 9.1336 8.24324H9.14336C9.20519 8.20832 9.2654 8.17156 9.3191 8.1348L9.49972 8.01165C9.5439 7.9797 9.59592 7.96444 9.64828 7.96807C9.70064 7.9717 9.75062 7.99405 9.79099 8.03187L10.341 8.53915C10.3574 8.55296 10.3755 8.56409 10.3947 8.57224C10.4118 8.57685 10.4296 8.57685 10.4468 8.57224C10.47 8.57097 10.4928 8.56407 10.5135 8.55202C10.5321 8.53865 10.5486 8.52188 10.5623 8.50239C10.7494 8.24875 10.9333 7.98776 11.1221 7.73595C11.133 7.72004 11.1413 7.70197 11.1465 7.68265C11.1499 7.65953 11.1499 7.63593 11.1465 7.61281C11.1436 7.58488 11.1371 7.55761 11.1269 7.53194C11.1164 7.50988 11.1027 7.49 11.0863 7.47312L10.5981 7.02465C10.5524 6.98373 10.5209 6.92587 10.5093 6.86129C10.4977 6.79672 10.5067 6.72959 10.5346 6.67176C10.5647 6.60842 10.5918 6.5434 10.616 6.47693C10.6437 6.40157 10.6681 6.32989 10.6876 6.26372C10.7071 6.19756 10.7266 6.12036 10.7478 6.03765C10.769 5.95494 10.7852 5.88694 10.7999 5.81342C10.8123 5.75195 10.8426 5.69697 10.886 5.65731C10.9293 5.61764 10.9833 5.59559 11.0391 5.5947L11.716 5.51382C11.7397 5.51091 11.7628 5.50346 11.7843 5.49177C11.8015 5.47987 11.8174 5.46568 11.8315 5.44949C11.8435 5.43173 11.8529 5.41186 11.8592 5.39068C11.8627 5.36756 11.8627 5.34395 11.8592 5.32084L11.7746 4.3467C11.7718 4.32054 11.7652 4.29509 11.7551 4.27134V4.26032C11.7438 4.24096 11.7301 4.22362 11.7144 4.20885C11.6983 4.19436 11.6801 4.18317 11.6607 4.17577C11.6429 4.17199 11.6247 4.17199 11.607 4.17577L10.9675 4.22723C10.9122 4.23323 10.8568 4.21846 10.8097 4.18523C10.7626 4.152 10.7266 4.10216 10.7071 4.04343C10.686 3.97543 10.6632 3.90375 10.6339 3.83023C10.6046 3.75671 10.5769 3.67951 10.5493 3.61886V3.60599C10.5217 3.54302 10.4913 3.48167 10.4582 3.42219C10.4256 3.3597 10.3882 3.29721 10.3508 3.23839C10.3202 3.18759 10.3051 3.12695 10.3078 3.06562C10.3104 3.00428 10.3306 2.94558 10.3654 2.89837L10.8113 2.27529C10.8254 2.25618 10.8364 2.2344 10.8438 2.21096C10.8473 2.1934 10.8473 2.17521 10.8438 2.15766C10.8405 2.13081 10.8333 2.10475 10.8227 2.08046V2.0676C10.8131 2.0512 10.8016 2.03636 10.7885 2.02348L10.1783 1.45738C10.1455 1.44763 10.115 1.43008 10.0888 1.40592ZM16.8222 5.92737C16.7966 5.9027 16.7668 5.88412 16.7346 5.87276C16.7025 5.86139 16.6686 5.85746 16.6351 5.8612C16.5678 5.86981 16.5061 5.90732 16.4626 5.96597L16.2136 6.306C16.1345 6.25974 16.0524 6.22041 15.9679 6.18837C15.8801 6.15712 15.8052 6.12955 15.7108 6.10566L15.6718 5.63146C15.6658 5.55573 15.6337 5.48572 15.5823 5.43663C15.5569 5.41231 15.5272 5.39434 15.4953 5.38388C15.4633 5.37343 15.4297 5.37073 15.3968 5.37598L14.8663 5.43479C14.8032 5.44443 14.7453 5.47972 14.7036 5.53404C14.6815 5.56284 14.6649 5.59648 14.6548 5.63284C14.6447 5.66921 14.6414 5.70752 14.645 5.74541L14.6808 6.18101C14.5948 6.21243 14.5115 6.25241 14.4318 6.30048C14.3528 6.34455 14.2767 6.39491 14.204 6.4512L13.8688 6.14609C13.8445 6.12067 13.8157 6.10144 13.7842 6.0897C13.7528 6.07797 13.7195 6.07401 13.6866 6.07809C13.6189 6.08679 13.557 6.12506 13.5141 6.18469L13.1886 6.64235C13.1669 6.67135 13.1504 6.70498 13.1403 6.74126C13.1303 6.77754 13.1267 6.81573 13.1299 6.85359C13.1331 6.89144 13.1429 6.9282 13.1589 6.96168C13.1749 6.99516 13.1966 7.0247 13.2228 7.04854L13.5059 7.32976C13.4648 7.41881 13.4305 7.51165 13.4034 7.60729C13.3741 7.70654 13.3497 7.79109 13.3286 7.8977L12.9088 7.94181C12.8419 7.9491 12.7801 7.98532 12.7363 8.0429C12.7163 8.07273 12.7021 8.10694 12.6945 8.14334C12.687 8.17974 12.6862 8.21752 12.6923 8.25427L12.7444 8.85161C12.7509 8.92662 12.783 8.99583 12.8339 9.0446C12.859 9.06969 12.8885 9.08855 12.9204 9.09995C12.9524 9.11135 12.9861 9.11503 13.0194 9.11077L13.4051 9.07033C13.4317 9.16648 13.4654 9.25994 13.5059 9.34971C13.5463 9.44052 13.5908 9.52887 13.6394 9.61438L13.3693 9.98198C13.3469 10.0095 13.3302 10.0421 13.32 10.0777C13.3099 10.1132 13.3067 10.1508 13.3107 10.1878C13.32 10.2601 13.3531 10.3257 13.4034 10.3716L13.8151 10.7705C13.841 10.7945 13.8709 10.8123 13.9031 10.8228C13.9353 10.8332 13.969 10.8361 14.0022 10.8311C14.0697 10.8238 14.1323 10.7884 14.178 10.7319L14.4286 10.3863C14.5072 10.4337 14.5895 10.473 14.6743 10.504C14.7586 10.5369 14.8444 10.5645 14.9314 10.5867L14.9704 11.0627C14.9775 11.1376 15.0095 11.2066 15.0599 11.2557C15.0856 11.2802 15.1155 11.2984 15.1477 11.3092C15.1799 11.3199 15.2137 11.323 15.2471 11.3182L15.7759 11.2594C15.8421 11.2513 15.9032 11.2152 15.9468 11.1583C15.9689 11.1295 15.9855 11.0959 15.9955 11.0595C16.0056 11.0231 16.009 10.9848 16.0054 10.9469L15.9679 10.5113C16.0541 10.4806 16.1375 10.4406 16.2169 10.3918C16.2969 10.3472 16.3746 10.2975 16.4496 10.243L16.775 10.5481C16.8005 10.573 16.8303 10.5918 16.8625 10.6032C16.8947 10.6145 16.9286 10.6183 16.9622 10.6142C16.9957 10.6108 17.0282 10.5997 17.0578 10.5817C17.0875 10.5637 17.1136 10.5391 17.1346 10.5095L17.4731 10.0463C17.4945 10.0171 17.5104 9.98332 17.5199 9.947C17.5294 9.91068 17.5323 9.87256 17.5284 9.83494C17.5221 9.75829 17.4901 9.68727 17.4389 9.63643L17.133 9.35706C17.1791 9.26884 17.2178 9.17592 17.2486 9.07952C17.2775 8.98486 17.3019 8.88854 17.3218 8.79096L17.7432 8.74685C17.8068 8.7374 17.8649 8.70132 17.9059 8.64576C17.9277 8.61684 17.9439 8.58309 17.9534 8.54669C17.9629 8.51028 17.9656 8.47203 17.9613 8.43439L17.9092 7.83704C17.9001 7.76554 17.8683 7.70022 17.8197 7.65324C17.7943 7.62797 17.7646 7.60888 17.7324 7.59718C17.7002 7.58548 17.6662 7.58141 17.6326 7.58524L17.2469 7.62751C17.2179 7.53093 17.1826 7.43693 17.1412 7.3463C17.1039 7.25603 17.0592 7.16988 17.0077 7.08898L17.2795 6.71035C17.3013 6.68251 17.3178 6.64983 17.3279 6.61439C17.338 6.57895 17.3415 6.54153 17.338 6.5045C17.3304 6.42851 17.2972 6.35875 17.2453 6.30967L16.8385 5.93289H16.8255L16.8222 5.92737ZM15.2145 7.18272C15.3526 7.16859 15.4917 7.18418 15.6246 7.22867C15.752 7.27445 15.8706 7.34676 15.9744 7.44187C16.0776 7.53816 16.1633 7.65613 16.2267 7.78925C16.293 7.9259 16.3329 8.07687 16.3438 8.23221C16.3564 8.38812 16.3426 8.54531 16.3031 8.69538C16.2656 8.83978 16.2031 8.97437 16.1193 9.0914C16.0356 9.20842 15.9321 9.30558 15.815 9.37728C15.6936 9.4507 15.5601 9.49511 15.4228 9.50777C15.2848 9.52292 15.1455 9.50731 15.0127 9.46182C14.885 9.41669 14.7658 9.34501 14.6613 9.25046C14.559 9.15292 14.474 9.03443 14.4107 8.90124C14.3407 8.7644 14.2979 8.61199 14.2854 8.45461C14.2635 8.22526 14.303 7.99376 14.3987 7.78999C14.4944 7.58622 14.642 7.41951 14.8224 7.31138C14.9432 7.23605 15.0769 7.19092 15.2145 7.17904V7.18272ZM10.1799 0.826953C10.2368 0.847161 10.2915 0.874924 10.3426 0.909662C10.3785 0.919359 10.4119 0.938224 10.4403 0.964802L11.096 1.58053C11.1569 1.63684 11.2086 1.70462 11.249 1.78087L11.262 1.80476C11.3035 1.89146 11.33 1.98626 11.3401 2.08414C11.3515 2.18689 11.342 2.29122 11.3124 2.38924C11.2866 2.47536 11.2475 2.55563 11.1969 2.62634L10.8617 3.09687L10.8829 3.13547C10.9255 3.21625 10.9641 3.2997 10.9984 3.38543C11.0374 3.47121 11.07 3.55024 11.096 3.62253L11.109 3.65929L11.5484 3.61151C11.6337 3.60035 11.7201 3.6091 11.8022 3.63724H11.8153C11.8907 3.66548 11.9612 3.7084 12.0235 3.76406L12.0463 3.78612C12.1044 3.84372 12.1534 3.91209 12.1911 3.98829L12.2042 4.01219C12.2416 4.09551 12.2653 4.18581 12.2741 4.2787C12.2741 4.52499 12.3295 5.00286 12.3587 5.26018C12.3685 5.35314 12.3624 5.44734 12.3408 5.53772V5.55426C12.316 5.64903 12.2745 5.73718 12.2188 5.81342C12.1653 5.8882 12.0996 5.95061 12.0252 5.99722C11.9479 6.04203 11.8641 6.07068 11.7778 6.08176L11.2604 6.13323L11.2474 6.18653C11.2295 6.26005 11.2067 6.34276 11.1774 6.43649C11.1481 6.53023 11.1237 6.62029 11.096 6.6883L11.083 6.71954L11.4394 7.04487C11.507 7.11092 11.5623 7.19152 11.6021 7.28197C11.6318 7.36266 11.6494 7.44838 11.6542 7.53561V7.5448C11.6651 7.64343 11.6579 7.74354 11.633 7.83888C11.6104 7.92843 11.5735 8.01253 11.524 8.08701L10.9561 8.86264C10.9018 8.93799 10.8349 9.00046 10.7592 9.04644C10.6825 9.09491 10.5977 9.12495 10.5102 9.13466C10.4234 9.14605 10.3355 9.13793 10.2515 9.11077H10.2385C10.1644 9.08237 10.0951 9.04012 10.0334 8.98578L9.612 8.59797L9.56969 8.62554C9.49809 8.67333 9.42812 8.7156 9.36141 8.75236C9.29469 8.78912 9.23774 8.8222 9.17102 8.85529L9.11244 8.87734L9.158 9.3736C9.16809 9.47576 9.15866 9.57918 9.13034 9.67687C9.10289 9.76742 9.06098 9.85152 9.00667 9.925L8.99691 9.93603C8.94425 10.0029 8.88211 10.0594 8.81303 10.1033H8.79676C8.72339 10.145 8.64406 10.1718 8.56244 10.1823C8.34439 10.1823 7.92132 10.2466 7.6935 10.2797C7.60616 10.2906 7.51779 10.2825 7.43315 10.2558C7.34911 10.2272 7.27107 10.1797 7.20371 10.1161H7.19558C7.13299 10.0534 7.08066 9.97879 7.04099 9.89559C7.00035 9.80878 6.97493 9.71391 6.96614 9.61621L6.91895 9.03357L6.87339 9.01887L6.65208 8.93984C6.57398 8.91043 6.48936 8.87918 6.42915 8.8461L6.39824 8.83139L6.10534 9.23391C6.05165 9.30258 5.98708 9.3593 5.91495 9.40117L5.89705 9.41404C5.82556 9.45186 5.74922 9.47667 5.67087 9.48756H5.66273C5.57487 9.4998 5.48573 9.49167 5.40075 9.46366C5.32258 9.43694 5.24928 9.39461 5.18433 9.33868L4.49601 8.69722C4.42966 8.63555 4.37441 8.56005 4.33329 8.47482C4.29179 8.3888 4.26528 8.29459 4.25519 8.19729C4.24465 8.09816 4.2541 7.99762 4.28285 7.90321C4.30692 7.81848 4.34441 7.73939 4.3935 7.66978L4.73684 7.19375L4.71894 7.1478C4.68314 7.07979 4.64897 7.00627 4.6148 6.92908C4.57412 6.84453 4.53995 6.76366 4.50903 6.68095L4.49439 6.63867L4.05829 6.68462C3.9685 6.69657 3.87748 6.68654 3.79143 6.65521C3.7156 6.62711 3.645 6.5835 3.58314 6.52656L3.55873 6.50634C3.49241 6.44176 3.43723 6.36386 3.39601 6.27659C3.35882 6.19382 3.33512 6.10417 3.32604 6.01192C3.32604 5.76379 3.26909 5.29327 3.2398 5.03227C3.22641 4.93111 3.23139 4.82792 3.25444 4.729C3.27978 4.63408 3.32184 4.54593 3.37811 4.46985C3.43302 4.39597 3.49915 4.33373 3.57338 4.28605C3.65035 4.24078 3.73433 4.2127 3.82072 4.20334L4.33655 4.15004L4.34956 4.09674C4.36909 4.02505 4.39187 3.94051 4.41953 3.84861C4.4472 3.75671 4.47486 3.66481 4.50252 3.59496L4.51554 3.56004L4.18196 3.24023C4.11741 3.1837 4.0623 3.11461 4.01924 3.03622L4.00947 3.01784C3.97222 2.93653 3.94903 2.84795 3.94113 2.75684V2.74214C3.93187 2.64253 3.94073 2.54183 3.96717 2.44622C3.99419 2.35136 4.0373 2.26333 4.09409 2.18706L4.63921 1.43533C4.68901 1.36635 4.7497 1.30839 4.8182 1.26439L4.83773 1.24969C4.9141 1.20184 4.99822 1.17183 5.08507 1.16147C5.17443 1.14864 5.26521 1.15934 5.35031 1.19271C5.42643 1.22219 5.49745 1.26634 5.56022 1.32321L5.97841 1.70367L6.02072 1.66691C6.08744 1.6228 6.15578 1.58237 6.22412 1.54377C6.29247 1.50517 6.36732 1.4629 6.43404 1.42981L6.47309 1.41327L6.42915 0.918852C6.41927 0.822523 6.42703 0.724929 6.45193 0.632126V0.617422C6.47694 0.532209 6.51493 0.452589 6.56421 0.382159L6.58862 0.367456C6.64462 0.292647 6.7125 0.230311 6.78877 0.183657C6.86222 0.139855 6.94222 0.111811 7.02472 0.100947C7.24276 0.100947 7.66584 0.0384556 7.89365 0.00537182C7.98098 -0.0066173 8.06954 0.00151098 8.15401 0.0292657C8.23791 0.0573275 8.31595 0.104212 8.38345 0.167115C8.4489 0.228367 8.50402 0.302462 8.54617 0.385835C8.58774 0.475105 8.61422 0.572338 8.62428 0.672562L8.66984 1.25704L8.71703 1.27175C8.78049 1.29196 8.85534 1.3177 8.93833 1.34894L9.16126 1.44268L9.1938 1.45922L9.47531 1.07508C9.53027 0.999811 9.5977 0.937378 9.67383 0.891282C9.75171 0.842133 9.83743 0.810899 9.92605 0.799383C10.0141 0.787062 10.1035 0.796469 10.188 0.826953H10.1799ZM7.60075 2.96086C7.72583 2.94892 7.85157 2.94892 7.97664 2.96086C8.10686 2.97526 8.2355 3.0042 8.36067 3.04724C8.47991 3.08952 8.5954 3.14429 8.70564 3.21082L8.72028 3.22001C8.8234 3.28449 8.92139 3.3589 9.01318 3.44241C9.20421 3.6253 9.36365 3.84651 9.48345 4.0949C9.54658 4.22229 9.5968 4.35732 9.63315 4.49742C9.67105 4.6386 9.69506 4.78406 9.70475 4.93118C9.71612 5.0718 9.71612 5.2133 9.70475 5.35392C9.69365 5.50112 9.66856 5.64655 9.6299 5.78768V5.80606C9.593 5.93305 9.54617 6.05606 9.48996 6.17366C9.43114 6.29644 9.36309 6.41327 9.28656 6.52288L9.27028 6.5431C9.1118 6.75302 8.92038 6.92812 8.70564 7.05957C8.59182 7.12981 8.47185 7.18648 8.34765 7.22867C8.2228 7.26954 8.09473 7.29663 7.96525 7.30954C7.838 7.32147 7.7101 7.32147 7.58285 7.30954C7.45261 7.29535 7.32395 7.26641 7.19883 7.22315C7.08022 7.18053 6.96529 7.12578 6.85549 7.05957C6.74687 6.99229 6.64345 6.91482 6.54631 6.82799C6.45153 6.73808 6.36437 6.6384 6.28596 6.53023C6.20642 6.41983 6.13564 6.30175 6.07442 6.17734C6.01265 6.04879 5.96301 5.91326 5.92634 5.77298C5.88845 5.6318 5.86444 5.48633 5.85474 5.33922C5.84338 5.1986 5.84338 5.0571 5.85474 4.91648C5.86584 4.76927 5.89094 4.62385 5.9296 4.48271C5.96672 4.34789 6.01521 4.21741 6.07442 4.09306L6.08256 4.07652C6.13885 3.95893 6.20477 3.84755 6.27945 3.74384L6.29247 3.72546C6.36883 3.62267 6.45384 3.52849 6.54631 3.44425C6.64409 3.355 6.74863 3.27566 6.85874 3.20715C6.97194 3.1368 7.09138 3.08012 7.2151 3.03805C7.34054 2.99734 7.46913 2.97026 7.59913 2.95718L7.60075 2.96086ZM7.9262 3.52512C7.82986 3.51501 7.73289 3.51501 7.63655 3.52512C7.54121 3.53408 7.44691 3.55378 7.35504 3.58394C7.26527 3.61401 7.17855 3.65467 7.09631 3.70524C7.0121 3.75872 6.93207 3.8202 6.85711 3.88904C6.7903 3.95035 6.72824 4.01799 6.67161 4.09122C6.6165 4.16896 6.5675 4.25199 6.52516 4.33935V4.35405C6.48157 4.44758 6.44562 4.5454 6.41776 4.64629C6.38393 4.75225 6.35994 4.8619 6.34617 4.97346C6.33802 5.08232 6.33802 5.19176 6.34617 5.30062C6.35399 5.40907 6.37199 5.51627 6.39986 5.62043C6.42625 5.72397 6.46282 5.82384 6.50889 5.91818C6.55565 6.01313 6.61013 6.10297 6.67161 6.18653C6.7289 6.26714 6.79323 6.34103 6.86362 6.40709C6.93548 6.47161 7.01226 6.52881 7.09306 6.57802C7.17656 6.62742 7.26367 6.66862 7.35342 6.70116C7.44493 6.73365 7.53934 6.7546 7.63492 6.76366C7.7329 6.77377 7.83148 6.77377 7.92945 6.76366C8.0253 6.75453 8.12013 6.73483 8.21259 6.70484C8.29909 6.6743 8.38253 6.63365 8.46155 6.58353C8.54613 6.53072 8.6262 6.46919 8.70076 6.39973C8.7677 6.33726 8.82977 6.26838 8.88626 6.19388C8.94761 6.11152 9.00209 6.02291 9.04898 5.92921C9.09047 5.83926 9.12583 5.74586 9.15475 5.64984V5.63881C9.18302 5.53458 9.20209 5.42746 9.2117 5.319C9.21985 5.21014 9.21985 5.1007 9.2117 4.99184C9.20388 4.88339 9.18588 4.77618 9.158 4.67203C9.1315 4.57058 9.0955 4.47261 9.05061 4.37979C9.00423 4.28457 8.94973 4.19469 8.88789 4.11144C8.8306 4.03083 8.76627 3.95694 8.69587 3.89088C8.62787 3.82967 8.55548 3.77496 8.47945 3.7273H8.46644C8.38297 3.67781 8.29586 3.63661 8.20608 3.60415C8.11508 3.57189 8.02123 3.55094 7.9262 3.54166V3.52512ZM2.64424 15.779C2.75888 15.7786 2.87104 15.8167 2.96651 15.8884C3.06199 15.96 3.13649 16.0621 3.18059 16.1816C3.22468 16.3012 3.23639 16.4328 3.21422 16.5598C3.19205 16.6869 3.13701 16.8036 3.05606 16.8953C2.97511 16.987 2.87189 17.0495 2.75948 17.0749C2.64706 17.1003 2.5305 17.0875 2.42456 17.038C2.31861 16.9885 2.22804 16.9047 2.16431 16.797C2.10059 16.6894 2.06657 16.5628 2.06657 16.4333C2.06657 16.2601 2.12738 16.0939 2.23567 15.9713C2.34395 15.8486 2.49088 15.7795 2.64424 15.779Z" fill="white"/>
</svg>
