<svg width="187" height="31" viewBox="0 0 187 31" fill="none" xmlns="http://www.w3.org/2000/svg">
<path d="M24.5903 24.4732L24.5003 19.3732C24.5003 19.2432 24.4403 19.1833 24.3203 19.1833H22.7303C22.7027 19.1843 22.6752 19.1782 22.6506 19.1655C22.6261 19.1528 22.6052 19.1339 22.5901 19.1108C22.575 19.0876 22.5661 19.0609 22.5644 19.0333C22.5627 19.0057 22.5682 18.9781 22.5803 18.9532C22.9362 18.189 23.1206 17.3563 23.1206 16.5133C23.1206 15.6703 22.9362 14.8375 22.5803 14.0733C22.4603 13.7833 22.5803 13.6333 22.8703 13.6333H29.6703C29.7817 13.6333 29.8885 13.6775 29.9673 13.7563C30.0461 13.835 30.0903 13.9419 30.0903 14.0533V29.9433C30.0905 30.0221 30.0606 30.0981 30.0067 30.1557C29.9528 30.2133 29.879 30.2482 29.8003 30.2532C25.0495 30.5632 20.2846 30.5933 15.5303 30.3432C11.2803 29.9832 8.0603 29.1132 4.9703 26.3932C-0.629698 21.3932 -1.4897 13.4833 2.3503 7.07326C7.4703 -1.45674 18.9203 -0.0367502 27.3503 0.29325C31.2603 0.44325 30.6403 5.68325 26.3503 5.71325C23.5503 5.71325 20.7403 5.71325 17.9403 5.71325C16.1423 5.63521 14.3415 5.78304 12.5803 6.15326C7.0203 7.73326 3.7503 13.9432 6.2803 19.3132C9.4503 26.0432 18.6403 24.9833 24.2803 24.6633C24.3074 24.6633 24.3343 24.6578 24.3592 24.6471C24.3842 24.6365 24.4067 24.6208 24.4254 24.6012C24.4441 24.5815 24.4586 24.5583 24.468 24.5329C24.4775 24.5074 24.4817 24.4803 24.4803 24.4532L24.5903 24.4732Z" fill="#4286F5"/>
<path d="M91.2803 24.4732L91.2203 19.4732C91.2208 19.4355 91.213 19.398 91.1975 19.3636C91.182 19.3291 91.1592 19.2984 91.1306 19.2737C91.1021 19.2489 91.0684 19.2307 91.0321 19.2203C90.9958 19.2098 90.9576 19.2074 90.9203 19.2133C88.9203 19.4433 84.9203 19.6232 85.0803 16.4532C85.1803 14.6632 86.2503 13.7533 88.3003 13.7133C91.6803 13.6666 94.4136 13.6666 96.5003 13.7133C96.5527 13.713 96.6033 13.7324 96.6422 13.7675C96.681 13.8027 96.7053 13.8511 96.7103 13.9033C96.9303 16.5133 96.7103 19.5933 96.7703 21.6933C96.8303 24.4733 96.8303 27.2333 96.7703 29.9433C96.7703 30.0423 96.7317 30.1375 96.6626 30.2085C96.5934 30.2795 96.4993 30.3206 96.4003 30.3233C91.5503 30.4633 86.7503 30.7033 81.9103 30.4033C74.7503 29.9433 68.6203 25.7233 67.0303 18.5133C65.3003 10.5633 70.2903 2.19325 78.4703 0.693251C83.7403 -0.306749 88.8803 0.0332516 94.1803 0.373252C97.4903 0.583252 97.4703 4.37325 94.7803 5.47325C94.014 5.67352 93.2209 5.75115 92.4303 5.70325H82.4303C81.112 5.65873 79.7982 5.87918 78.5666 6.35155C77.335 6.82391 76.2107 7.53857 75.2603 8.45325C71.5503 12.0932 70.9103 18.0732 74.9003 21.8132C76.951 23.6882 79.6317 24.7234 82.4103 24.7133C85.9703 24.8133 88.8503 24.8133 91.0503 24.7133C91.0805 24.712 91.1102 24.7047 91.1376 24.692C91.165 24.6792 91.1896 24.6612 91.2101 24.6389C91.2305 24.6166 91.2464 24.5905 91.2567 24.5621C91.267 24.5336 91.2716 24.5035 91.2703 24.4732H91.2803Z" fill="#F6AE01"/>
<path d="M43.8703 16.7832C41.9603 18.6532 39.2303 21.5532 36.7703 23.7832C36.7369 23.8306 36.6912 23.8679 36.6382 23.8913C36.5852 23.9147 36.5268 23.9232 36.4693 23.916C36.4118 23.9088 36.3574 23.8862 36.3118 23.8505C36.2661 23.8148 36.2311 23.7673 36.2103 23.7133C34.8704 21.71 34.0233 19.4182 33.7382 17.025C33.4532 14.6318 33.7383 12.2052 34.5703 9.94325C34.582 9.92011 34.5998 9.90067 34.6219 9.88708C34.644 9.8735 34.6694 9.8663 34.6953 9.8663C34.7212 9.8663 34.7466 9.8735 34.7687 9.88708C34.7908 9.90067 34.8086 9.92011 34.8203 9.94325C35.6382 11.273 36.918 12.2542 38.4145 12.6989C39.911 13.1436 41.5189 13.0205 42.9303 12.3533C47.5303 10.1533 47.6103 4.21325 43.4603 1.35325C43.2303 1.19325 43.2503 1.06325 43.4603 0.983251C45.7698 0.147491 48.2458 -0.123396 50.6813 0.193227C53.1169 0.509849 55.4413 1.40478 57.4603 2.80325C57.475 2.81545 57.4868 2.83074 57.4949 2.84802C57.503 2.8653 57.5072 2.88416 57.5072 2.90325C57.5072 2.92234 57.503 2.9412 57.4949 2.95849C57.4868 2.97577 57.475 2.99105 57.4603 3.00325C52.967 7.66991 48.4003 12.2632 43.7603 16.7832H43.8703Z" fill="#E94134"/>
<path d="M135.36 5.94325C131.84 6.19325 131.58 10.7133 135.01 11.2633C139.52 11.9833 145.01 10.6432 149.01 11.9532C156.83 14.4632 157.8 25.6733 150.26 29.3033C148.674 29.9673 146.979 30.3334 145.26 30.3833C142.147 30.6033 139.021 30.5832 135.91 30.3233C134.446 30.2557 133.002 29.9588 131.63 29.4433C129.26 28.3833 126.01 24.7733 128.94 22.4433C130.23 21.4433 131.35 21.9933 132.48 23.0233C133.61 24.0533 134.32 24.7133 135.81 24.8033C139.36 25.0233 143.63 25.4132 147.08 24.5932C147.676 24.4828 148.234 24.2259 148.706 23.8457C149.177 23.4656 149.547 22.9741 149.781 22.4156C150.015 21.857 150.106 21.2491 150.047 20.6464C149.987 20.0437 149.779 19.4653 149.44 18.9633C148.992 18.2923 148.373 17.7532 147.647 17.4016C146.921 17.05 146.114 16.8987 145.31 16.9633C141.31 16.9633 135.31 17.7233 131.6 15.9633C124.26 12.4433 126.37 1.37325 134.6 0.553253C138.589 0.17306 142.602 0.11621 146.6 0.383255C147.802 0.423316 148.994 0.611399 150.15 0.943253C152.15 1.64325 154.43 3.49325 154.86 5.59325C154.918 5.98488 154.893 6.3842 154.788 6.76578C154.683 7.14735 154.499 7.50282 154.249 7.80951C153.999 8.1162 153.687 8.3674 153.334 8.5471C152.982 8.72681 152.596 8.83108 152.2 8.85326C150.2 8.80326 149.36 6.08325 146.97 5.95325C143.112 5.7349 139.245 5.76162 135.39 6.03325L135.36 5.94325Z" fill="#34A853"/>
<path d="M106.73 12.5833C108.94 12.6833 112.2 12.2133 114.24 12.9133C114.776 13.0715 115.246 13.3964 115.584 13.8408C115.921 14.2852 116.108 14.8258 116.117 15.3839C116.126 15.9419 115.957 16.4882 115.633 16.9432C115.31 17.3981 114.85 17.738 114.32 17.9133C113.745 18.0769 113.148 18.1511 112.55 18.1333C110.62 18.1333 108.69 18.1333 106.77 18.2433C106.727 18.2404 106.684 18.2544 106.65 18.2823C106.617 18.3102 106.595 18.3499 106.59 18.3932C106.19 20.7132 105.92 24.4433 108.95 24.8033C113.24 25.3233 117.67 24.8033 121.29 25.1333C124.54 25.4333 125.58 30.0532 121.43 30.2532C117.57 30.4332 113.707 30.4699 109.84 30.3632C104.26 30.2032 101.33 27.3599 101.05 21.8333C100.864 18.0733 100.864 13.7399 101.05 8.83325C101.27 3.66325 104.15 0.693249 109.57 0.433249C113.05 0.263249 121.5 -0.176745 123.21 1.24325C124.75 2.51325 124.37 4.49325 122.69 5.48325C121.545 5.92481 120.309 6.0793 119.09 5.93325C116.09 5.79325 113.15 5.77326 110.18 5.85326C105.89 5.98326 106.1 9.00326 106.51 12.4033C106.51 12.4278 106.515 12.452 106.525 12.4745C106.535 12.497 106.549 12.5173 106.567 12.5342C106.584 12.551 106.605 12.5641 106.628 12.5725C106.651 12.581 106.676 12.5846 106.7 12.5833H106.73Z" fill="#4286F5"/>
<path d="M166.83 17.1133C166.74 20.6033 166.74 24.1133 166.83 27.5933C166.862 28.0569 166.773 28.5209 166.574 28.9406C166.374 29.3602 166.07 29.7215 165.69 29.9896C165.31 30.2577 164.868 30.4237 164.406 30.4717C163.944 30.5196 163.477 30.4478 163.05 30.2633C161.45 29.5333 161.34 27.1833 161.34 25.5133C161.34 18.4733 161.307 11.4299 161.24 4.38326C161.24 2.64326 161.69 0.843257 163.57 0.483257C163.987 0.408048 164.416 0.429846 164.823 0.546963C165.23 0.664079 165.605 0.873371 165.918 1.15862C166.232 1.44387 166.475 1.79741 166.63 2.19187C166.784 2.58632 166.846 3.01108 166.81 3.43325C166.81 6.02325 166.81 8.60326 166.81 11.1933C166.81 11.3033 166.81 11.3633 166.97 11.3633H181.09C181.113 11.3666 181.137 11.3645 181.159 11.3572C181.181 11.3498 181.201 11.3374 181.218 11.3209C181.234 11.3044 181.247 11.2842 181.254 11.2621C181.262 11.2399 181.264 11.2164 181.26 11.1933C181.26 8.66326 181.26 6.14326 181.26 3.62326C181.26 1.81326 182.51 -0.016747 184.54 0.463253C186.57 0.943253 186.92 2.77326 186.9 4.55326L186.63 25.6633C186.763 26.914 186.584 28.1782 186.11 29.3433C184.69 31.8033 181.3 30.2633 181.28 27.5733C181.28 24.1399 181.28 20.7066 181.28 17.2733C181.28 17.1795 181.244 17.0894 181.178 17.0222C181.113 16.9549 181.024 16.9159 180.93 16.9133H167.03C166.978 16.9157 166.929 16.9375 166.892 16.9745C166.855 17.0115 166.833 17.061 166.83 17.1133Z" fill="#E94134"/>
<path d="M41.9003 10.0932C41.3795 10.3482 40.8069 10.4793 40.2271 10.4762C39.6472 10.4731 39.076 10.336 38.558 10.0755C38.0399 9.81505 37.5892 9.4383 37.2409 8.97473C36.8926 8.51116 36.6563 7.97332 36.5503 7.40326C36.2503 5.72326 38.6303 3.75325 40.0503 2.93325C40.1419 2.87369 40.2531 2.85217 40.3603 2.87325C44.2803 3.35325 45.5603 8.33325 41.9003 10.0932Z" fill="#E94134"/>
<path d="M40.1003 27.6933C40.0752 27.6726 40.0549 27.6467 40.041 27.6173C40.0271 27.5879 40.0199 27.5558 40.0199 27.5233C40.0199 27.4908 40.0271 27.4586 40.041 27.4292C40.0549 27.3999 40.0752 27.3739 40.1003 27.3533L61.0003 6.46328C61.1003 6.36328 61.1903 6.36328 61.2703 6.46328C62.6949 8.51307 63.5995 10.8786 63.9061 13.356C64.2127 15.8333 63.9122 18.348 63.0303 20.6833C63.0092 20.7278 62.976 20.7654 62.9344 20.7917C62.8928 20.8181 62.8445 20.832 62.7953 20.832C62.7461 20.832 62.6978 20.8181 62.6562 20.7917C62.6146 20.7654 62.5814 20.7278 62.5603 20.6833C62.0648 19.8847 61.395 19.2087 60.6011 18.7057C59.8072 18.2027 58.9099 17.8858 57.9762 17.7788C57.0425 17.6717 56.0967 17.7773 55.2096 18.0877C54.3225 18.398 53.5171 18.905 52.8538 19.5707C52.1904 20.2364 51.6862 21.0435 51.379 21.9317C51.0718 22.8199 50.9695 23.766 51.0798 24.6993C51.1901 25.6327 51.5101 26.5289 52.0158 27.321C52.5216 28.1131 53.2 28.7805 54.0003 29.2733C54.0212 29.2843 54.0388 29.3009 54.051 29.3211C54.0632 29.3414 54.0697 29.3646 54.0697 29.3883C54.0697 29.4119 54.0632 29.4352 54.051 29.4554C54.0388 29.4757 54.0212 29.4922 54.0003 29.5033C51.7095 30.3024 49.2626 30.5505 46.858 30.2273C44.4534 29.9042 42.1588 29.0189 40.1603 27.6433L40.1003 27.6933Z" fill="#E94134"/>
<path d="M20.3703 16.4633C20.3723 16.9977 20.2156 17.5207 19.9201 17.966C19.6247 18.4113 19.2037 18.759 18.7105 18.9648C18.2173 19.1707 17.6741 19.2256 17.1497 19.1226C16.6253 19.0195 16.1433 18.7632 15.7647 18.386C15.3861 18.0088 15.1279 17.5277 15.0229 17.0037C14.9179 16.4797 14.9708 15.9363 15.1749 15.4423C15.3789 14.9484 15.725 14.5261 16.1692 14.229C16.6135 13.9319 17.1359 13.7733 17.6703 13.7733C18.3847 13.7732 19.0699 14.0563 19.576 14.5605C20.082 15.0647 20.3677 15.7489 20.3703 16.4633Z" fill="#4286F5"/>
<path d="M58.0303 27.3333C55.5203 29.1733 53.0303 25.2533 53.6603 23.0433C54.8703 18.8533 60.4203 19.5333 61.1203 23.7233C61.2803 24.6433 58.7203 26.8133 58.0303 27.3333Z" fill="#E94134"/>
</svg>
